<?xml version="1.0" encoding="utf-8"?>
<!-- Generator: Adobe Illustrator 22.0.1, SVG Export Plug-In . SVG Version: 6.00 Build 0)  -->
<svg version="1.1" id="Layer_1" xmlns="http://www.w3.org/2000/svg" xmlns:xlink="http://www.w3.org/1999/xlink" x="0px" y="0px"
	 viewBox="0 0 793.9 211" style="enable-background:new 0 0 793.9 211;" xml:space="preserve">
<style type="text/css">
	.st0{opacity:0.58;}
	.st1{opacity:0.39;}
</style>
<g class="st0">
	<rect x="-0.6" y="105.6" width="216.5" height="105.5"/>
</g>
<g>
	<path d="M429,60.3l-18.4,15.4c-6.4-8.5-13-12.8-19.7-12.8c-3.3,0-5.9,0.8-8,2.5c-2.1,1.7-3.1,3.5-3.1,5.6c0,2.1,0.7,4,2.2,5.9
		c2,2.5,8.1,7.7,18.2,15.9c9.5,7.5,15.2,12.2,17.2,14.2c5,4.8,8.6,9.4,10.7,13.8c2.1,4.4,3.1,9.2,3.1,14.4
		c0,10.1-3.7,18.5-11.1,25.1c-7.4,6.6-17,9.9-28.9,9.9c-9.3,0-17.4-2.2-24.2-6.5c-6.9-4.3-12.8-11.1-17.7-20.3l20.8-11.9
		c6.3,10.9,13.5,16.4,21.6,16.4c4.3,0,7.8-1.2,10.7-3.5c2.9-2.3,4.3-5.1,4.3-8.1c0-2.8-1.1-5.6-3.3-8.4c-2.2-2.8-7-7.1-14.5-12.8
		c-14.2-11-23.4-19.4-27.5-25.4c-4.1-6-6.2-11.9-6.2-17.8c0-8.6,3.4-15.9,10.3-22c6.9-6.1,15.4-9.2,25.5-9.2
		c6.5,0,12.7,1.4,18.6,4.3C415.7,47.5,422.1,52.7,429,60.3z"/>
	<path d="M454.9,43.5h24.8v101h36.1v22.4h-60.9V43.5z"/>
	<path d="M570.7,43.5H594l46.4,123.4h-23.9l-9.4-25.4h-49.2l-9.8,25.4h-23.9L570.7,43.5z M582.5,76.2l-16.2,42.4h32.3L582.5,76.2z"
		/>
	<path d="M634,43.5h72v23.2h-23.7v100.3h-25.1V66.7H634V43.5z"/>
	<path d="M723.1,43.5h71.1v23h-46.5v22.3h46.5v22.6h-46.5v32.5h46.5v23.1h-71.1V43.5z"/>
</g>
<g class="st1">
	<rect x="70" y="0.1" width="216.5" height="105.5"/>
</g>
</svg>
