<svg id="Layer_1" data-name="Layer 1" xmlns="http://www.w3.org/2000/svg" viewBox="0 0 838.05 309.43"><title>slate-logo</title><path d="M46.32,303.4a104.08,104.08,0,0,1-26.8-12.6l1.6,14H4.32L1.92,236h12.4a58.33,58.33,0,0,0,9,29.2,59.25,59.25,0,0,0,21.6,20.2,58.26,58.26,0,0,0,28.6,7.4,57.53,57.53,0,0,0,30.6-8.2q13.39-8.21,13.4-23.4,0-11.2-6.6-18.8a53.72,53.72,0,0,0-16.4-12.6q-9.81-5-27.4-11.8-21.21-8-34-15a69.54,69.54,0,0,1-22-19q-9.21-12-9.2-30.4a60,60,0,0,1,6.4-26.4q6.39-13.2,21.6-22.4t40.4-9.2a86.06,86.06,0,0,1,25.4,4,70.7,70.7,0,0,1,24.2,13.2l-.8-15.2h16.8v70h-12.8q-1.2-23.21-14.2-40.2t-36.6-17q-18,0-28.6,9t-10.6,21.4q0,11.59,7,19.6A61.64,61.64,0,0,0,57.52,174a255.73,255.73,0,0,0,28,12.4,299,299,0,0,1,33.6,15.6,70.84,70.84,0,0,1,21.8,19q9,11.81,9,28.6,0,19.2-9.8,32.4a60.06,60.06,0,0,1-25.6,19.8,86.82,86.82,0,0,1-33.8,6.6A112.32,112.32,0,0,1,46.32,303.4Z"/><path d="M179.92,290q11.6,0,16.6-5.8a26.59,26.59,0,0,0,6-14.8q1-9,1-28.2V52a240.08,240.08,0,0,1,1.2-26l-28.4,1.6V10.8q24,0,34.2-2.8t15.8-8h11.6l.4,259.6a162.45,162.45,0,0,1-2,27.2l25.2-1.2V302h-81.6Z"/><path d="M304.11,295.2q-15.41-13.2-15.4-34.4,0-23.2,18.6-39.2t46.8-23.8a200.59,200.59,0,0,1,56.6-7.4V165.6q0-26-7.6-40.6t-32.4-14.6a55.3,55.3,0,0,0-23.6,5.2,33.29,33.29,0,0,0-16.4,15.6q5.19,5.6,5.2,15.2a17.81,17.81,0,0,1-4.4,11.4q-4.41,5.4-12.8,5.4t-13.2-5.4q-4.8-5.4-4.8-14.2,0-13.2,10.2-24.2t28.4-17.4q18.19-6.41,40.6-6.4,33.6,0,49.6,17.8t15.6,56.2l-.4,90a248.57,248.57,0,0,1-1.6,27.2l28.4-1.6V302h-57.2q-1.2-6-2.8-22.8-29.2,29.21-62.8,29.2Q319.51,308.4,304.11,295.2Zm81.4-15.4Q397.9,274,410.71,262q-.4-6-.4-20.4l.4-37.6q-32.81,1.2-58.4,13.4t-25.6,37.4q0,14.81,8.8,22.8t22.4,8A64.32,64.32,0,0,0,385.51,279.8Z"/><path d="M517.11,234.8l.8-116-30.8.4V102q19.2-.41,32.6-17.4A114.2,114.2,0,0,0,539.51,46h13.6v56h67.2v15.6l-67.2.8q-.4,61.2-.6,84.8t-.2,26.4q0,28.4,6.8,42.2t23.6,13.8q10.39,0,20.6-6.4a60.54,60.54,0,0,0,17.8-17.6l10.8,8.8q-15.6,23.21-30.8,30.6t-29.6,7.4Q516.7,308.4,517.11,234.8Z"/><path d="M698.11,295.4q-22.2-13-35-37.2t-12.8-55.8a112.23,112.23,0,0,1,12.8-52.6,101.86,101.86,0,0,1,35.8-39.4q23-14.81,52.2-14.8,22.8,0,41.2,10t29.2,29.8q10.8,19.8,10.8,48.6l-140.8,2.4q-.4,48,15.8,74.8t50.2,26.8q18.39,0,37.8-9.6t29.8-23.6l9.6,8a93.43,93.43,0,0,1-39.4,34.4q-24.21,11.19-47.4,11.2Q720.31,308.4,698.11,295.4Zm96.6-125.8q0-24-10.8-41.2t-32.4-17.2q-49.6,0-58.8,58.4Z"/></svg>