<svg id="Layer_1" data-name="Layer 1" xmlns="http://www.w3.org/2000/svg" viewBox="0 0 793.88 211.05"><defs><style>.cls-1{opacity:0.84;}.cls-2{opacity:0.62;}</style></defs><title>slate-logo</title><g class="cls-1"><rect x="-0.55" y="105.62" width="216.47" height="106.5"/></g><path d="M429,60.3,410.61,75.65q-9.67-12.75-19.7-12.75a12.41,12.41,0,0,0-8,2.47q-3.1,2.47-3.11,5.58A9.27,9.27,0,0,0,382,76.83q3,3.69,18.18,15.85,14.2,11.25,17.21,14.18,7.54,7.22,10.69,13.8a32.92,32.92,0,0,1,3.15,14.39,32.17,32.17,0,0,1-11.08,25.09q-11.08,9.9-28.9,9.9-13.92,0-24.24-6.46t-17.69-20.31l20.84-11.91q9.41,16.37,21.64,16.36a16.51,16.51,0,0,0,10.73-3.52q4.35-3.52,4.35-8.14a13.59,13.59,0,0,0-3.28-8.39q-3.28-4.2-14.46-12.84-21.29-16.44-27.5-25.38t-6.21-17.83q0-12.83,10.33-22t25.49-9.19a42.05,42.05,0,0,1,18.57,4.28Q418.68,49,429,60.3Z"/><path d="M454.92,43.52h24.79v101h36.13v22.4H454.92Z"/><path d="M570.74,43.52H594l46.41,123.41H616.58l-9.44-25.42H557.9l-9.82,25.42H524.21Zm11.79,32.72-16.19,42.37h32.29Z"/><path d="M634,43.52h72V66.67H682.28V166.93H657.13V66.67H634Z"/><path d="M723.11,43.52h71.1v23H747.72V88.82h46.49v22.57H747.72v32.47h46.49v23.07h-71.1Z"/><g class="cls-2"><rect x="69.98" y="-0.88" width="216.47" height="106.5"/></g></svg>