<svg id="Layer_1" data-name="Layer 1" xmlns="http://www.w3.org/2000/svg" viewBox="0 0 779.33 213.67"><defs><style>.cls-1{fill:#b5b5b5;}.cls-2{fill:#ddd;}.cls-3{fill:#fff;}</style></defs><title>slate-logo</title><rect class="cls-1" x="0.67" y="106.5" width="216.47" height="106.5"/><rect class="cls-2" x="51.2" width="216.47" height="106.5"/><path class="cls-3" d="M404.19,61.18,385.82,76.54q-9.66-12.77-19.69-12.76a12.46,12.46,0,0,0-8,2.48Q355,68.73,355,71.84a9.24,9.24,0,0,0,2.22,5.87q3,3.69,18.18,15.86,14.19,11.24,17.21,14.18,7.55,7.22,10.69,13.8a32.89,32.89,0,0,1,3.15,14.39A32.16,32.16,0,0,1,395.41,161q-11.09,9.9-28.9,9.9-13.92,0-24.25-6.46t-17.68-20.3l20.84-11.92q9.4,16.37,21.64,16.36a16.48,16.48,0,0,0,10.73-3.52q4.35-3.53,4.35-8.14a13.67,13.67,0,0,0-3.28-8.39q-3.28-4.19-14.46-12.83-21.3-16.45-27.5-25.38t-6.21-17.83q0-12.84,10.33-22t25.49-9.18a41.92,41.92,0,0,1,18.57,4.28Q393.9,49.86,404.19,61.18Z"/><path class="cls-3" d="M430.13,44.4h24.8v101h36.13v22.4H430.13Z"/><path class="cls-3" d="M546,44.4h23.3l46.41,123.42H591.8l-9.45-25.42H533.11l-9.81,25.42H499.43Zm11.79,32.72-16.19,42.37h32.29Z"/><path class="cls-3" d="M618.24,44.4h72V67.56H666.5V167.82H641.35V67.56H618.24Z"/><path class="cls-3" d="M707.32,44.4h71.11v23H731.94V89.71h46.49v22.57H731.94v32.46h46.49v23.08H707.32Z"/></svg>