<svg id="Layer_1" data-name="Layer 1" xmlns="http://www.w3.org/2000/svg" viewBox="0 0 1024 1024"><defs><style>.cls-1{fill:none;stroke:#000;stroke-linecap:round;stroke-miterlimit:10;stroke-width:60px;}</style></defs><title>sun-moon</title><line class="cls-1" x1="512" y1="51" x2="512" y2="186"/><line class="cls-1" x1="186.02" y1="186.02" x2="281.48" y2="281.48"/><line class="cls-1" x1="51" y1="512" x2="186" y2="512"/><line class="cls-1" x1="186.02" y1="837.98" x2="281.48" y2="742.52"/><line class="cls-1" x1="512" y1="973" x2="512" y2="838"/><line class="cls-1" x1="837.98" y1="837.98" x2="742.52" y2="742.52"/><line class="cls-1" x1="837.98" y1="186.02" x2="742.52" y2="281.48"/><line class="cls-1" x1="973" y1="512" x2="838" y2="512"/><path d="M512,365a147,147,0,1,1-103.94,43.06A146,146,0,0,1,512,365m0-60c-114.32,0-207,92.68-207,207s92.68,207,207,207,207-92.68,207-207S626.32,305,512,305Z"/></svg>