<?xml version="1.0" encoding="utf-8"?>
<!-- Generator: Adobe Illustrator 22.0.1, SVG Export Plug-In . SVG Version: 6.00 Build 0)  -->
<svg version="1.1" id="Layer_1" xmlns="http://www.w3.org/2000/svg" xmlns:xlink="http://www.w3.org/1999/xlink" x="0px" y="0px"
	 viewBox="0 0 1152 1152" style="enable-background:new 0 0 1152 1152;" xml:space="preserve">
<style type="text/css">
	.st0{display:none;fill:none;stroke:#FFFFFF;stroke-width:60;stroke-linejoin:bevel;stroke-miterlimit:10;}
</style>
<polyline class="st0" points="576,576 135,279 576,576 711,45 "/>
<line class="st0" x1="945" y1="954" x2="576" y2="576"/>
<g>
	<path d="M604.5,568.4l291.2,298.3C965.4,789.9,1008,687.9,1008,576c0-192.8-126.4-356.2-300.8-411.7L604.5,568.4z"/>
	<path d="M559.4,595.9L203.9,356.4C165.8,420.8,144,495.8,144,576c0,238.6,193.4,432,432,432c108.2,0,207.1-39.8,282.8-105.5
		L559.4,595.9z"/>
	<path d="M560.1,534.3l97.3-382.6c-26.3-5-53.5-7.7-81.4-7.7c-140,0-264.4,66.6-343.3,169.8L560.1,534.3z"/>
</g>
</svg>
